<?xml version="1.0" encoding="UTF-8"?>
<svg version="1.1" xmlns="http://www.w3.org/2000/svg" width="511" height="512">
<path d="M0 0 C0.78955078 0.22042969 1.57910156 0.44085938 2.39257812 0.66796875 C19.00930336 5.40129365 34.94852458 12.44084444 48 24 C48.85078125 24.74378906 49.7015625 25.48757812 50.578125 26.25390625 C57.56676178 32.45581052 57.56676178 32.45581052 60.2421875 35.81640625 C63.21583818 38.17089737 63.57650352 38.30572316 67.1171875 38.05078125 C68.70668421 37.82883507 70.29275615 37.58132016 71.875 37.3125 C73.58776866 37.07889602 75.30133706 36.85108678 77.015625 36.62890625 C77.86189453 36.51562988 78.70816406 36.40235352 79.58007812 36.28564453 C110.07910781 32.68557747 144.19941468 43.05666667 168.25 61.9375 C169.84391435 63.27919626 171.42737747 64.63340928 173 66 C173.80824219 66.67546875 174.61648438 67.3509375 175.44921875 68.046875 C200.11275732 89.26448746 216.08037644 120.60787544 219 153 C219.9401367 168.34466591 218.9619898 183.35495431 214.8359375 198.19140625 C214.04143468 201.81122051 213.73137851 203.58176987 215 207 C216.52748532 209.22241188 216.52748532 209.22241188 218.5 211.375 C240.28864551 237.72405969 248.24966546 271.71813309 245.29345703 305.31738281 C242.1289221 334.24576037 228.87154153 360.00172158 209 381 C207.93652344 382.14275391 207.93652344 382.14275391 206.8515625 383.30859375 C190.36823669 400.47624536 166.81706025 413.84774203 143 417 C142.773125 418.27359375 142.54625 419.5471875 142.3125 420.859375 C141.05966203 426.46210145 138.69996668 431.2131848 136 436.25 C135.51160645 437.16950439 135.02321289 438.08900879 134.52001953 439.03637695 C130.35355367 446.69597442 125.68320755 453.38967866 120 460 C119.26136719 460.88816406 118.52273438 461.77632813 117.76171875 462.69140625 C112.42003488 468.90597629 106.48683024 474.01500214 100 479 C99.14792969 479.67933594 98.29585938 480.35867188 97.41796875 481.05859375 C70.36265172 501.86725587 34.44083176 508.60661062 1.03515625 504.50390625 C-2.71594164 503.8406252 -6.32888993 503.01314434 -10 502 C-11.26714844 501.67128906 -12.53429687 501.34257812 -13.83984375 501.00390625 C-37.80323847 494.40065971 -56.62772526 481.37227474 -74 464 C-76.33432612 463.92620413 -76.33432612 463.92620413 -79.03125 464.27734375 C-80.06032471 464.37966309 -81.08939941 464.48198242 -82.1496582 464.58740234 C-83.80807739 464.76070068 -83.80807739 464.76070068 -85.5 464.9375 C-119.48662604 468.01555229 -153.94559731 460.36101903 -180.9230957 438.45385742 C-192.22036377 428.89081185 -202.2602791 418.67305446 -210 406 C-210.37318359 405.40670898 -210.74636719 404.81341797 -211.13085938 404.20214844 C-220.55667969 389.11609933 -226.34920364 372.58008148 -229 355 C-229.13019531 354.14792969 -229.26039063 353.29585938 -229.39453125 352.41796875 C-231.35788281 336.63262217 -230.32543588 319.49751768 -225.8984375 304.19140625 C-225.04784396 301.16995006 -224.54612608 299.09459494 -225 296 C-226.45484968 293.68795289 -226.45484968 293.68795289 -228.5 291.5 C-240.0723042 277.66620677 -248.62657779 260.49368886 -253 243 C-253.29777344 241.93265625 -253.59554687 240.8653125 -253.90234375 239.765625 C-258.611296 219.88820445 -258.14944173 195.48558042 -252 176 C-251.75330566 175.21383301 -251.50661133 174.42766602 -251.25244141 173.61767578 C-244.5011214 152.75862509 -234.06366064 135.98814523 -219 120 C-218.38898438 119.32453125 -217.77796875 118.6490625 -217.1484375 117.953125 C-201.42185961 101.22272299 -176.74581739 88.17798704 -154 85 C-153.89558594 84.32582031 -153.79117188 83.65164062 -153.68359375 82.95703125 C-149.58474 65.22656104 -137.98706835 49.07671996 -125.38134766 36.40039062 C-124.13875373 35.14066656 -122.93210933 33.8457223 -121.73046875 32.546875 C-106.49191635 16.37535001 -85.26626704 5.6908355 -64 0 C-62.74058594 -0.33902344 -61.48117188 -0.67804687 -60.18359375 -1.02734375 C-41.58423423 -5.1000592 -18.30734394 -5.27372048 0 0 Z M-103 62 C-123.86440851 86.00067245 -127.54015783 113.30103027 -127 144 C-122.72276585 140.39291002 -118.6014802 136.68734167 -114.5625 132.8125 C-107.63188427 126.34243487 -99.94952987 121.13041426 -92 116 C-91.01515625 115.35160156 -90.0303125 114.70320313 -89.015625 114.03515625 C-79.04246415 107.8230603 -67.7736618 103.62463611 -56.66796875 99.875 C-45.74068407 96.13017419 -36.14325688 89.84051595 -26.27197266 83.94238281 C-20.87908387 80.74093354 -15.43837904 77.62332444 -10 74.5 C2.3618856 67.38198421 14.68637239 60.20113837 27 53 C25.68154686 49.04464059 23.24608512 47.82102955 19.875 45.6875 C19.25262451 45.29159668 18.63024902 44.89569336 17.98901367 44.48779297 C-22.11963576 19.80014995 -71.12895114 29.09940884 -103 62 Z M35 87 C34.37174316 87.35868164 33.74348633 87.71736328 33.09619141 88.08691406 C29.710976 90.02520099 26.34606417 91.99494035 23 94 C26.26856586 96.1790439 28.69364784 96.77314801 32.5 97.6875 C53.63446548 103.12089124 72.99315767 111.97596848 90.046875 125.6875 C95.06692061 129.61854101 100.49584406 132.80237095 106 136 C106.88816406 136.5165918 107.77632813 137.03318359 108.69140625 137.56542969 C115.29407378 141.39833414 121.91102866 145.2061845 128.53173828 149.0078125 C134.06620975 152.18684159 139.5958234 155.3742735 145.125 158.5625 C146.18420654 159.1723877 147.24341309 159.78227539 148.3347168 160.41064453 C153.87010947 163.60156118 159.39306033 166.81226604 164.8984375 170.0546875 C166.00687012 170.70622803 167.11530273 171.35776855 168.25732422 172.02905273 C170.37837494 173.2773778 172.49728476 174.52934949 174.61376953 175.78540039 C175.55591309 176.3396167 176.49805664 176.89383301 177.46875 177.46484375 C178.29826172 177.955896 179.12777344 178.44694824 179.98242188 178.95288086 C181.91700664 180.15355086 181.91700664 180.15355086 184 180 C187.68350027 156.51768581 182.37187641 131.17338055 168.6796875 111.58984375 C153.63093601 90.99571403 132.32442524 75.81739242 106.83105469 71.64501953 C80.02659817 67.77556453 58.17405482 73.6895948 35 87 Z M-195.3125 144.9375 C-207.25873704 157.09903605 -215.57099655 172.5427556 -220 189 C-220.22429687 189.80695313 -220.44859375 190.61390625 -220.6796875 191.4453125 C-226.17893955 215.47629063 -220.42084031 241.78328888 -207.73535156 262.5534668 C-196.13319677 280.52631998 -179.17499314 291.51165348 -161 302 C-159.91524274 298.74572823 -160.06105855 297.96282246 -160.92578125 294.78125 C-161.25412964 293.52090942 -161.25412964 293.52090942 -161.58911133 292.23510742 C-161.82782959 291.33252197 -162.06654785 290.42993652 -162.3125 289.5 C-168.04515173 266.60291736 -169.41942678 241.85496285 -163.48708725 218.82314873 C-160.77147438 208.10146119 -160.47639431 197.87456758 -160.609375 186.8671875 C-160.61686114 185.00961932 -160.6225428 183.1520431 -160.62652588 181.29446411 C-160.64159585 176.47101962 -160.68071 171.64807849 -160.7253418 166.8248291 C-160.76670353 161.8767782 -160.78462305 156.92864373 -160.8046875 151.98046875 C-160.84722797 142.32009471 -160.91524467 132.66008966 -161 123 C-173.05927997 123 -187.37051214 137.12336846 -195.3125 144.9375 Z M-93.0625 184.5625 C-110.50991767 206.17319472 -118.96354025 233.86472782 -116.60375977 261.5246582 C-113.41861666 290.76882693 -98.21369401 316.06623406 -75.62207031 334.73681641 C-51.13229131 353.80817652 -21.74225124 360.83225175 8.94140625 357.69970703 C31.22365485 354.51710784 51.16278521 346.04602172 68 331 C68.63292969 330.46117187 69.26585937 329.92234375 69.91796875 329.3671875 C82.99219469 317.4597689 89.47696114 300.06640923 92 283 C92 281.68 92 280.36 92 279 C42.17 279 -7.66 279 -59 279 C-45.23966942 259.50619835 -45.23966942 259.50619835 -40.0625 252.375 C-38.51949547 250.24553987 -36.97684865 248.11585569 -35.43798828 245.98339844 C-34.46976996 244.64794757 -33.4940108 243.31793519 -32.51123047 241.99316406 C-29.89750207 238.82976797 -29.89750207 238.82976797 -29 235 C29.74 235 88.48 235 149 235 C149.58932366 245.60782593 150.147719 256.0199018 150.11352539 266.60986328 C150.11367142 267.84144165 150.11381744 269.07302002 150.1139679 270.34191895 C150.11339947 273.6506827 150.10846036 276.95940152 150.10139394 280.26815653 C150.09504969 283.75143131 150.094548 287.2347074 150.09336853 290.71798706 C150.09028731 297.28351612 150.08211819 303.8490281 150.07201904 310.41454971 C150.06075695 317.90212579 150.05532227 325.38970277 150.05032361 332.87728524 C150.03993207 348.25153331 150.02239626 363.62576444 150 379 C151.43370757 378.5368849 152.86616694 378.06990455 154.2980957 377.60131836 C155.09592972 377.34168808 155.89376373 377.0820578 156.71577454 376.81455994 C176.51453767 369.75427648 193.0940243 350.93904122 201.9375 332.5 C212.91152167 308.65980178 214.5742433 282.50679786 205.83203125 257.68359375 C195.72551583 232.07387992 177.8746395 216.05968864 154.5 202.625 C152.87578125 201.68333984 152.87578125 201.68333984 151.21875 200.72265625 C143.78222855 196.15018448 143.78222855 196.15018448 135.40795898 195.00097656 C134.23591415 195.02299133 133.06386932 195.0450061 131.85630798 195.06768799 C130.58243729 195.0917572 129.30856659 195.11582642 127.99609375 195.140625 C124.60836127 195.16666451 121.22075368 195.18598496 117.83296108 195.20027542 C114.28848217 195.21888093 110.74723415 195.26052729 107.20385742 195.35302734 C82.29026669 195.97418834 82.29026669 195.97418834 77.27709961 191.24121094 C74.84080173 188.12884239 73.43176892 184.67244996 72 181 C57.78460353 161.0837238 33.85894934 149.13374586 10.33032227 144.82446289 C-28.78159262 138.65878343 -67.32526019 155.21649467 -93.0625 184.5625 Z M-194 322 C-199.43749306 332.87498611 -195.41672357 353.70740762 -191.68896484 365.04541016 C-182.63990285 390.71755415 -165.68415267 411.02991305 -141 423 C-136.4060796 424.97028142 -131.78845303 426.57158011 -127 428 C-125.97261719 428.3196875 -124.94523437 428.639375 -123.88671875 428.96875 C-96.0231893 436.31737315 -69.63043673 428.70347411 -45.5625 414.6875 C-40.53205957 412.10993163 -40.53205957 412.10993163 -37 408 C-38.81757813 407.5978125 -38.81757813 407.5978125 -40.671875 407.1875 C-69.4941742 400.55183716 -93.66288263 388.00417024 -115.8671875 368.640625 C-123.04448736 362.51408184 -130.6678415 357.7084922 -138.875 353.0625 C-140.59897988 352.07752692 -142.32295469 351.09254487 -144.04663086 350.10704041 C-145.83260958 349.08672477 -147.61985263 348.06865041 -149.40722656 347.05078125 C-155.20284384 343.74685895 -160.97435567 340.40116894 -166.75 337.0625 C-169.9024354 335.24410271 -173.05540542 333.42663576 -176.20849609 331.609375 C-177.96442369 330.59703682 -179.72000799 329.5841027 -181.47509766 328.5703125 C-183.50308696 327.39903887 -185.53249124 326.23026876 -187.5625 325.0625 C-188.61566406 324.45535156 -189.66882813 323.84820312 -190.75390625 323.22265625 C-192.72016594 321.9203162 -192.72016594 321.9203162 -194 322 Z M115 359 C113.55811052 360.4654218 112.11961364 361.93432541 110.69775391 363.41918945 C93.70663055 381.06801903 71.76883884 395.06056945 48.05322266 401.75048828 C38.92085867 404.32869553 31.55522293 408.46175884 23.52783203 413.45458984 C18.59938206 416.46763681 13.57277381 419.31339808 8.5625 422.1875 C6.33834219 423.46840369 4.11438676 424.74965886 1.890625 426.03125 C0.76462891 426.67964844 -0.36136719 427.32804687 -1.52148438 427.99609375 C-5.08319577 430.04746236 -8.64332403 432.10156839 -12.203125 434.15625 C-12.79154678 434.49586258 -13.37996857 434.83547516 -13.98622131 435.18537903 C-16.81109084 436.81580862 -19.63590443 438.44633508 -22.46069336 440.0769043 C-27.63428027 443.06221762 -32.81072232 446.04203833 -38 449 C-38 449.66 -38 450.32 -38 451 C-35.96731958 452.52374844 -33.95709896 453.89927203 -31.8125 455.25 C-30.86117187 455.85171021 -30.86117187 455.85171021 -29.890625 456.46557617 C-8.54469132 469.69803929 16.89099285 474.76620402 41.6875 469.8125 C57.87498868 465.58457067 72.49667364 458.15776971 85 447 C86.22976563 445.91138672 86.22976563 445.91138672 87.484375 444.80078125 C104.47534582 428.83876674 115.10454345 405.81768519 116.15795898 382.50415039 C116.19536071 378.91725137 116.17562656 375.33669741 116.125 371.75 C116.11597656 370.51636719 116.10695313 369.28273438 116.09765625 368.01171875 C116.07436851 365.00759976 116.04166756 362.00391057 116 359 C115.67 359 115.34 359 115 359 Z " fill="#283683" transform="translate(262,5)"/>
<path d="M0 0 C0.66 0.33 1.32 0.66 2 1 C-6.58 9.58 -15.16 18.16 -24 27 C-24 22.74145391 -21.53835903 20.92829049 -18.75 18 C-18.21729492 17.43128174 -17.68458984 16.86256348 -17.13574219 16.27661133 C-11.70041649 10.54754878 -5.91160312 5.23030134 0 0 Z " fill="#656EA5" transform="translate(154,131)"/>
<path d="" fill="#273583" transform="translate(0,0)"/>
</svg>
